<?xml version="1.0" encoding="UTF-8" standalone="no"?>
<!-- Created with Inkscape (http://www.inkscape.org/) -->

<svg
   xmlns:dc="http://purl.org/dc/elements/1.1/"
   xmlns:cc="http://creativecommons.org/ns#"
   xmlns:rdf="http://www.w3.org/1999/02/22-rdf-syntax-ns#"
   xmlns:svg="http://www.w3.org/2000/svg"
   xmlns="http://www.w3.org/2000/svg"
   xmlns:sodipodi="http://sodipodi.sourceforge.net/DTD/sodipodi-0.dtd"
   xmlns:inkscape="http://www.inkscape.org/namespaces/inkscape"
   width="74.561752mm"
   height="59.178585mm"
   viewBox="0 0 264.1952 209.6879"
   id="svg6204"
   version="1.1"
   inkscape:version="0.91 r13725"
   sodipodi:docname="naoMM4.svg">
  <defs
     id="defs6206" />
  <sodipodi:namedview
     id="base"
     pagecolor="#ffffff"
     bordercolor="#666666"
     borderopacity="1.0"
     inkscape:pageopacity="0.0"
     inkscape:pageshadow="2"
     inkscape:zoom="2.3445952"
     inkscape:cx="200.76616"
     inkscape:cy="138.58068"
     inkscape:document-units="px"
     inkscape:current-layer="layer1"
     showgrid="false"
     fit-margin-top="0"
     fit-margin-left="0"
     fit-margin-right="0"
     fit-margin-bottom="0"
     inkscape:window-width="1855"
     inkscape:window-height="1056"
     inkscape:window-x="65"
     inkscape:window-y="24"
     inkscape:window-maximized="1" />
  <metadata
     id="metadata6209">
    <rdf:RDF>
      <cc:Work
         rdf:about="">
        <dc:format>image/svg+xml</dc:format>
        <dc:type
           rdf:resource="http://purl.org/dc/dcmitype/StillImage" />
        <dc:title></dc:title>
      </cc:Work>
    </rdf:RDF>
  </metadata>
  <g
     inkscape:label="Layer 1"
     inkscape:groupmode="layer"
     id="layer1"
     transform="translate(-131.6425,-392.40853)">
    <g
       id="g7296"
       transform="matrix(0.65796741,0,0,0.75678585,45.026026,146.43838)">
      <rect
         y="325.01947"
         x="131.6425"
         height="277.07697"
         width="401.53235"
         id="rect5724"
         style="fill:#ffffff;fill-opacity:1;stroke:none;stroke-width:0.96100003;stroke-miterlimit:4;stroke-dasharray:none;stroke-dashoffset:0;stroke-opacity:1" />
    </g>
    <path
       style="fill:none;stroke:#000000;stroke-width:1;stroke-linecap:round;stroke-linejoin:round;stroke-miterlimit:4;stroke-dasharray:none;stroke-opacity:1"
       d="m 220.61798,586.75092 c 4.43081,0.44435 8.90486,0.70154 13.255,1.707"
       id="path3843"
       inkscape:connector-curvature="0" />
    <path
       style="fill:none;stroke:#000000;stroke-width:1;stroke-linecap:round;stroke-linejoin:round;stroke-miterlimit:4;stroke-dasharray:none;stroke-opacity:1"
       d="m 235.60598,586.36392 c 5.37755,-4.12628 11.89513,-6.11185 18.459,-7.093"
       id="path3847"
       inkscape:connector-curvature="0" />
    <path
       style="fill:none;stroke:#000000;stroke-width:1;stroke-linecap:round;stroke-linejoin:round;stroke-miterlimit:4;stroke-dasharray:none;stroke-opacity:1"
       d="m 219.65898,584.52092 c -7.57079,1.41678 -15.83307,0.67787 -23.546,-0.3 l -0.383,-0.214 -0.028,-0.016"
       id="path3861"
       inkscape:connector-curvature="0" />
    <path
       style="fill:none;stroke:#000000;stroke-width:1;stroke-linecap:round;stroke-linejoin:round;stroke-miterlimit:4;stroke-dasharray:none;stroke-opacity:1"
       d="m 198.41398,583.36892 c -6.68455,0.0506 -0.82852,1.71704 2.27387,1.55301 6.56095,0.16522 13.55275,1.12179 19.87913,-0.38201 -0.99894,-0.52056 -2.19243,-0.48712 -3.278,-0.68"
       id="path3863"
       inkscape:connector-curvature="0" />
    <path
       style="fill:none;stroke:#000000;stroke-width:1;stroke-linecap:round;stroke-linejoin:round;stroke-miterlimit:4;stroke-dasharray:none;stroke-opacity:1"
       d="m 203.31198,589.06092 c -2.66616,-0.39457 -7.52373,-0.86456 -8.555,-3.255"
       id="path3865"
       inkscape:connector-curvature="0" />
    <path
       style="fill:none;stroke:#000000;stroke-width:1;stroke-linecap:round;stroke-linejoin:round;stroke-miterlimit:4;stroke-dasharray:none;stroke-opacity:1"
       d="m 220.51598,586.76792 c -4.00277,1.13791 -9.25417,2.55817 -13.866,2.435"
       id="path3867"
       inkscape:connector-curvature="0" />
    <path
       style="fill:none;stroke:#000000;stroke-width:1;stroke-linecap:round;stroke-linejoin:round;stroke-miterlimit:4;stroke-dasharray:none;stroke-opacity:1"
       d="m 235.55598,586.31892 c -2.08681,4.31496 -5.89691,5.73005 -10.481,5.841 -11.05445,1.90746 -22.19368,-1.35949 -33.345,-0.246 -3.96406,-0.74127 -7.81172,-1.83175 -11.632,-3.115"
       id="path3881"
       inkscape:connector-curvature="0" />
    <path
       style="fill:none;stroke:#000000;stroke-width:1;stroke-linecap:round;stroke-linejoin:round;stroke-miterlimit:4;stroke-dasharray:none;stroke-opacity:1"
       d="m 180.09798,588.79892 c 0.18053,-2.83839 -0.17741,-7.12945 2.632,-2.314"
       id="path3883"
       inkscape:connector-curvature="0" />
    <path
       style="fill:none;stroke:#000000;stroke-width:1;stroke-linecap:round;stroke-linejoin:round;stroke-miterlimit:4;stroke-dasharray:none;stroke-opacity:1"
       d="m 177.45998,530.36392 c 0.69392,-5.35099 3.98007,-9.9331 9.35231,-11.38578 10.90281,-5.50883 24.04345,-9.0585 35.74893,-3.77777 5.34017,2.25884 12.15799,4.2591 15.73376,9.02655"
       id="path3897"
       inkscape:connector-curvature="0" />
    <path
       style="fill:none;stroke:#000000;stroke-width:1;stroke-linecap:round;stroke-linejoin:round;stroke-miterlimit:4;stroke-dasharray:none;stroke-opacity:1"
       d="m 249.53898,535.44392 c 1.96386,8.7053 1.33817,18.07099 -0.517,26.75"
       id="path3899"
       inkscape:connector-curvature="0" />
    <path
       style="fill:none;stroke:#000000;stroke-width:1;stroke-linecap:round;stroke-linejoin:round;stroke-miterlimit:4;stroke-dasharray:none;stroke-opacity:1"
       d="m 211.70298,560.49292 c 3.25455,7.30645 16.83728,2.61492 13.31,-5.159 -2.66734,-5.78949 -12.31363,-4.53242 -13.67,1.594"
       id="path3901"
       inkscape:connector-curvature="0" />
    <path
       style="fill:none;stroke:#000000;stroke-width:1;stroke-linecap:round;stroke-linejoin:round;stroke-miterlimit:4;stroke-dasharray:none;stroke-opacity:1"
       d="m 250.06998,552.96792 c 0.2556,-4.30579 0.30695,-8.6324 -0.017,-12.936"
       id="path3905"
       inkscape:connector-curvature="0" />
    <path
       style="fill:none;stroke:#000000;stroke-width:1;stroke-linecap:round;stroke-linejoin:round;stroke-miterlimit:4;stroke-dasharray:none;stroke-opacity:1"
       d="m 199.66798,544.89892 c -1.97352,1.68628 0.86582,4.29825 2.644,2.84"
       id="path3907"
       inkscape:connector-curvature="0" />
    <path
       style="fill:none;stroke:#000000;stroke-width:1;stroke-linecap:round;stroke-linejoin:round;stroke-miterlimit:4;stroke-dasharray:none;stroke-opacity:1"
       d="m 177.45998,530.35992 c -0.78453,3.95725 0.0945,8.16173 2.177,11.588"
       id="path3909"
       inkscape:connector-curvature="0" />
    <path
       style="fill:none;stroke:#000000;stroke-width:1;stroke-linecap:round;stroke-linejoin:round;stroke-miterlimit:4;stroke-dasharray:none;stroke-opacity:1"
       d="m 226.68898,542.91992 c 2.68643,-3.60813 5.4037,-7.33958 6.708,-11.708"
       id="path3911"
       inkscape:connector-curvature="0" />
    <path
       style="fill:none;stroke:#000000;stroke-width:1;stroke-linecap:round;stroke-linejoin:round;stroke-miterlimit:4;stroke-dasharray:none;stroke-opacity:1"
       d="m 234.31598,528.78592 c 0.18824,-1.79778 1.12412,-3.70718 2.335,-5.061"
       id="path3913"
       inkscape:connector-curvature="0" />
    <path
       style="fill:none;stroke:#000000;stroke-width:1;stroke-linecap:round;stroke-linejoin:round;stroke-miterlimit:4;stroke-dasharray:none;stroke-opacity:1"
       d="m 179.63698,541.94792 c 6.53531,7.77526 17.98151,6.436 27.1453,6.67013 6.92538,-0.24838 14.49681,-0.84131 19.9067,-5.69813"
       id="path3915"
       inkscape:connector-curvature="0" />
    <path
       style="fill:none;stroke:#000000;stroke-width:1;stroke-linecap:round;stroke-linejoin:round;stroke-miterlimit:4;stroke-dasharray:none;stroke-opacity:1"
       d="m 202.30298,547.75192 c -3.55641,2.59513 -4.58592,-4.54504 -0.57,-3.154 1.22987,0.49122 1.49442,2.25799 0.57,3.154 z"
       id="path3917"
       inkscape:connector-curvature="0" />
    <path
       style="fill:none;stroke:#000000;stroke-width:1;stroke-linecap:round;stroke-linejoin:round;stroke-miterlimit:4;stroke-dasharray:none;stroke-opacity:1"
       d="m 203.27398,576.60192 c -3.34276,1.13181 -6.08243,-4.24427 -1.029,-2.439 2.19222,-0.61698 2.91986,1.28107 1.029,2.439 z"
       id="path3919"
       inkscape:connector-curvature="0" />
    <path
       style="fill:none;stroke:#000000;stroke-width:1;stroke-linecap:round;stroke-linejoin:round;stroke-miterlimit:4;stroke-dasharray:none;stroke-opacity:1"
       d="m 196.20698,581.03992 c 5.58055,1.83987 11.65315,1.57345 17.262,0.821 5.62245,0.8415 11.83738,-3.25563 17.148,-5.016"
       id="path3921"
       inkscape:connector-curvature="0" />
    <path
       style="fill:none;stroke:#000000;stroke-width:1;stroke-linecap:round;stroke-linejoin:round;stroke-miterlimit:4;stroke-dasharray:none;stroke-opacity:1"
       d="m 190.41298,560.91492 c -4.72553,6.6623 -14.74016,-2.8301 -9.3825,-8.39359 3.3677,-3.92525 9.68136,-0.78486 10.2005,3.85759"
       id="path3923"
       inkscape:connector-curvature="0" />
    <path
       style="fill:none;stroke:#000000;stroke-width:1;stroke-linecap:round;stroke-linejoin:round;stroke-miterlimit:4;stroke-dasharray:none;stroke-opacity:1"
       d="m 249.34898,567.16192 c -3.14362,-9.23754 -1.70072,-19.52733 -0.523,-29.05 0.46633,-1.99555 0.71563,-4.21911 2.008,-5.883"
       id="path3925"
       inkscape:connector-curvature="0" />
    <path
       style="fill:none;stroke:#000000;stroke-width:1;stroke-linecap:round;stroke-linejoin:round;stroke-miterlimit:4;stroke-dasharray:none;stroke-opacity:1"
       d="m 249.36698,535.64792 c 2.19816,8.96467 1.5558,18.74849 -0.853,27.617 l -0.224,0.464 -0.042,0.067"
       id="path3929"
       inkscape:connector-curvature="0" />
    <path
       style="fill:none;stroke:#000000;stroke-width:1;stroke-linecap:round;stroke-linejoin:round;stroke-miterlimit:4;stroke-dasharray:none;stroke-opacity:1"
       d="m 256.42198,574.55992 c 1.15412,-4.30287 6.83606,-2.5748 10.19304,-2.7002 10.49077,0.87933 20.63909,7.02917 25.57996,16.3812 0.28719,2.75592 -0.80621,5.31734 -2.102,7.679"
       id="path3933"
       inkscape:connector-curvature="0" />
    <path
       style="fill:none;stroke:#000000;stroke-width:1;stroke-linecap:round;stroke-linejoin:round;stroke-miterlimit:4;stroke-dasharray:none;stroke-opacity:1"
       d="m 256.09798,575.49792 c -0.97285,3.37545 -2.95611,6.33336 -3.803,9.744"
       id="path3939"
       inkscape:connector-curvature="0" />
    <path
       style="fill:none;stroke:#000000;stroke-width:1;stroke-linecap:round;stroke-linejoin:round;stroke-miterlimit:4;stroke-dasharray:none;stroke-opacity:1"
       d="m 265.93198,600.26092 c 8.7223,0.5517 13.5115,-7.95912 20.75411,-10.87006 3.58191,-1.58715 6.40217,2.22615 3.78317,5.14415 -0.96967,1.84998 -1.92097,3.71309 -3.13828,5.41691"
       id="path3941"
       inkscape:connector-curvature="0" />
    <path
       style="fill:none;stroke:#000000;stroke-width:1;stroke-linecap:round;stroke-linejoin:round;stroke-miterlimit:4;stroke-dasharray:none;stroke-opacity:1"
       d="m 252.00498,590.25892 c 0.64348,3.21326 2.92774,6.14241 5.776,7.756"
       id="path3943"
       inkscape:connector-curvature="0" />
    <path
       style="fill:none;stroke:#000000;stroke-width:1;stroke-linecap:round;stroke-linejoin:round;stroke-miterlimit:4;stroke-dasharray:none;stroke-opacity:1"
       d="m 132.60898,590.52392 c -1.62563,-6.23879 1.02661,-13.30313 7.34375,-15.62733 6.72295,-3.30619 15.3858,-5.47706 22.50125,-2.57167 1.32986,0.93182 1.90776,2.60668 2.661,3.976"
       id="path4281"
       inkscape:connector-curvature="0" />
    <path
       style="fill:none;stroke:#000000;stroke-width:1;stroke-linecap:round;stroke-linejoin:round;stroke-miterlimit:4;stroke-dasharray:none;stroke-opacity:1"
       d="m 164.16198,576.01992 c 6.25188,1.60499 12.09818,4.38899 17.059,8.57"
       id="path4299"
       inkscape:connector-curvature="0" />
    <path
       style="fill:none;stroke:#000000;stroke-width:1;stroke-linecap:round;stroke-linejoin:round;stroke-miterlimit:4;stroke-dasharray:none;stroke-opacity:1"
       d="m 180.21898,586.84592 c 4.79634,-0.83732 9.66897,-1.12309 14.542,-1.114"
       id="path4301"
       inkscape:connector-curvature="0" />
    <path
       style="fill:none;stroke:#000000;stroke-width:1;stroke-linecap:round;stroke-linejoin:round;stroke-miterlimit:4;stroke-dasharray:none;stroke-opacity:1"
       d="m 196.18198,581.30092 c -10.04467,-3.42968 -18.81683,-9.70841 -28.807,-13.197 -5.15804,-4.38166 -3.90603,-12.27724 -4.392,-18.376 0.6326,-7.39495 0.0615,-16.39607 5.617,-22.092 3.35141,-2.23257 7.63568,-1.86581 11.155,-3.752"
       id="path4313"
       inkscape:connector-curvature="0" />
    <path
       style="fill:none;stroke:#000000;stroke-width:1;stroke-linecap:round;stroke-linejoin:round;stroke-miterlimit:4;stroke-dasharray:none;stroke-opacity:1"
       d="m 238.29498,524.22692 c 4.68269,3.32394 13.72451,1.54852 14.715,8.87 1.74811,11.71017 1.60203,24.15709 -2.13,35.467 -2.89318,5.37107 -10.46736,3.22795 -15.09108,6.17896 -1.92125,0.63508 -3.75498,1.48703 -5.62592,2.25104"
       id="path4321"
       inkscape:connector-curvature="0" />
    <ellipse
       style="fill:none;fill-opacity:1;stroke:#000000;stroke-width:1;stroke-miterlimit:4;stroke-dasharray:none;stroke-dashoffset:0;stroke-opacity:1"
       id="path5002"
       cx="234.86333"
       cy="512.19391"
       rx="4.2931485"
       ry="3.7880721" />
    <ellipse
       style="fill:none;fill-opacity:1;stroke:#000000;stroke-width:1;stroke-miterlimit:4;stroke-dasharray:none;stroke-dashoffset:0;stroke-opacity:1"
       id="path5004"
       cx="256.07654"
       cy="503.10254"
       rx="10.354064"
       ry="8.3337584" />
    <path
       style="fill:none;fill-rule:evenodd;stroke:#000000;stroke-width:1.08800006;stroke-linecap:butt;stroke-linejoin:miter;stroke-miterlimit:4;stroke-dasharray:none;stroke-opacity:1"
       d="m 259.8988,457.61304 c -11.69876,34.78312 7.03444,28.78035 18.49208,32.52854 7.86092,11.92457 17.09117,16.90973 29.41924,6.19589 12.33776,11.98295 23.52562,11.25133 33.62198,-1.54897 26.0961,5.51584 26.99466,-8.02627 27.73811,-21.6857 20.37808,-11.33396 15.9616,-20.91056 7.56494,-30.20503 5.9745,-16.39511 2.08063,-27.19461 -21.01371,-27.1071 -8.53631,-11.01475 -18.92478,-13.49643 -31.94089,-3.87244 -10.26217,-7.32156 -21.12941,-9.6254 -33.62196,1.54897 -13.27931,-1.31474 -25.18383,-0.72936 -25.21648,16.26424 -7.72053,6.25854 -20.7597,9.84402 -5.04331,27.8816 z"
       id="path5006"
       inkscape:connector-curvature="0"
       sodipodi:nodetypes="ccccccccccc" />
    <ellipse
       style="fill:none;fill-opacity:1;stroke:#000000;stroke-width:1;stroke-miterlimit:4;stroke-dasharray:none;stroke-dashoffset:0;stroke-opacity:1"
       id="path7141"
       cx="218.10437"
       cy="558.31689"
       rx="3.8947208"
       ry="3.3105128" />
    <circle
       style="fill:none;fill-opacity:1;stroke:#000000;stroke-width:1;stroke-miterlimit:4;stroke-dasharray:none;stroke-dashoffset:0;stroke-opacity:1"
       id="path7143"
       cx="185.58345"
       cy="557.92737"
       r="2.9210405" />
    <g
       id="g7903"
       transform="matrix(0.68868999,0,0,0.67551311,3.9291433,184.35531)">
      <path
         inkscape:connector-curvature="0"
         id="path3843-1"
         d="m 460.84598,437.27618 c 4.43081,0.44435 8.90486,0.70154 13.255,1.707"
         style="fill:none;stroke:#000000;stroke-width:1;stroke-linecap:round;stroke-linejoin:round;stroke-miterlimit:4;stroke-dasharray:none;stroke-opacity:1" />
      <path
         inkscape:connector-curvature="0"
         id="path3847-8"
         d="m 475.83398,436.88918 c 5.37755,-4.12628 11.89513,-6.11185 18.459,-7.093"
         style="fill:none;stroke:#000000;stroke-width:1;stroke-linecap:round;stroke-linejoin:round;stroke-miterlimit:4;stroke-dasharray:none;stroke-opacity:1" />
      <path
         inkscape:connector-curvature="0"
         id="path3861-7"
         d="m 459.88698,435.04618 c -7.57079,1.41678 -15.83307,0.67787 -23.546,-0.3 l -0.383,-0.214 -0.028,-0.016"
         style="fill:none;stroke:#000000;stroke-width:1;stroke-linecap:round;stroke-linejoin:round;stroke-miterlimit:4;stroke-dasharray:none;stroke-opacity:1" />
      <path
         inkscape:connector-curvature="0"
         id="path3863-8"
         d="m 438.64198,433.89418 c -6.68455,0.0506 -0.82852,1.71704 2.27387,1.55301 6.56095,0.16522 13.55275,1.12179 19.87913,-0.38201 -0.99894,-0.52056 -2.19243,-0.48712 -3.278,-0.68"
         style="fill:none;stroke:#000000;stroke-width:1;stroke-linecap:round;stroke-linejoin:round;stroke-miterlimit:4;stroke-dasharray:none;stroke-opacity:1" />
      <path
         inkscape:connector-curvature="0"
         id="path3865-4"
         d="m 443.53998,439.58618 c -2.66616,-0.39457 -7.52373,-0.86456 -8.555,-3.255"
         style="fill:none;stroke:#000000;stroke-width:1;stroke-linecap:round;stroke-linejoin:round;stroke-miterlimit:4;stroke-dasharray:none;stroke-opacity:1" />
      <path
         inkscape:connector-curvature="0"
         id="path3867-5"
         d="m 460.74398,437.29318 c -4.00277,1.13791 -9.25417,2.55817 -13.866,2.435"
         style="fill:none;stroke:#000000;stroke-width:1;stroke-linecap:round;stroke-linejoin:round;stroke-miterlimit:4;stroke-dasharray:none;stroke-opacity:1" />
      <path
         inkscape:connector-curvature="0"
         id="path3881-8"
         d="m 475.78398,436.84418 c -2.08681,4.31496 -5.89691,5.73005 -10.481,5.841 -11.05445,1.90746 -22.19368,-1.35949 -33.345,-0.246 -3.96406,-0.74127 -7.81172,-1.83175 -11.632,-3.115"
         style="fill:none;stroke:#000000;stroke-width:1;stroke-linecap:round;stroke-linejoin:round;stroke-miterlimit:4;stroke-dasharray:none;stroke-opacity:1" />
      <path
         inkscape:connector-curvature="0"
         id="path3883-8"
         d="m 420.32598,439.32418 c 0.18053,-2.83839 -0.17741,-7.12945 2.632,-2.314"
         style="fill:none;stroke:#000000;stroke-width:1;stroke-linecap:round;stroke-linejoin:round;stroke-miterlimit:4;stroke-dasharray:none;stroke-opacity:1" />
      <path
         inkscape:connector-curvature="0"
         id="path3897-0"
         d="m 417.68798,380.88918 c 0.69392,-5.35099 3.98007,-9.9331 9.35231,-11.38578 10.90281,-5.50883 24.04345,-9.0585 35.74893,-3.77777 5.34017,2.25884 12.15799,4.2591 15.73376,9.02655"
         style="fill:none;stroke:#000000;stroke-width:1;stroke-linecap:round;stroke-linejoin:round;stroke-miterlimit:4;stroke-dasharray:none;stroke-opacity:1" />
      <path
         inkscape:connector-curvature="0"
         id="path3899-1"
         d="m 489.76698,385.96918 c 1.96386,8.7053 1.33817,18.07099 -0.517,26.75"
         style="fill:none;stroke:#000000;stroke-width:1;stroke-linecap:round;stroke-linejoin:round;stroke-miterlimit:4;stroke-dasharray:none;stroke-opacity:1" />
      <path
         inkscape:connector-curvature="0"
         id="path3901-7"
         d="m 451.93098,411.01818 c 3.25455,7.30645 16.83728,2.61492 13.31,-5.159 -2.66734,-5.78949 -12.31363,-4.53242 -13.67,1.594"
         style="fill:none;stroke:#000000;stroke-width:1;stroke-linecap:round;stroke-linejoin:round;stroke-miterlimit:4;stroke-dasharray:none;stroke-opacity:1" />
      <path
         inkscape:connector-curvature="0"
         id="path3905-2"
         d="m 490.29798,403.49318 c 0.2556,-4.30579 0.30695,-8.6324 -0.017,-12.936"
         style="fill:none;stroke:#000000;stroke-width:1;stroke-linecap:round;stroke-linejoin:round;stroke-miterlimit:4;stroke-dasharray:none;stroke-opacity:1" />
      <path
         inkscape:connector-curvature="0"
         id="path3907-2"
         d="m 439.89598,395.42418 c -1.97352,1.68628 0.86582,4.29825 2.644,2.84"
         style="fill:none;stroke:#000000;stroke-width:1;stroke-linecap:round;stroke-linejoin:round;stroke-miterlimit:4;stroke-dasharray:none;stroke-opacity:1" />
      <path
         inkscape:connector-curvature="0"
         id="path3909-5"
         d="m 417.68798,380.88518 c -0.78453,3.95725 0.0945,8.16173 2.177,11.588"
         style="fill:none;stroke:#000000;stroke-width:1;stroke-linecap:round;stroke-linejoin:round;stroke-miterlimit:4;stroke-dasharray:none;stroke-opacity:1" />
      <path
         inkscape:connector-curvature="0"
         id="path3911-6"
         d="m 466.91698,393.44518 c 2.68643,-3.60813 5.4037,-7.33958 6.708,-11.708"
         style="fill:none;stroke:#000000;stroke-width:1;stroke-linecap:round;stroke-linejoin:round;stroke-miterlimit:4;stroke-dasharray:none;stroke-opacity:1" />
      <path
         inkscape:connector-curvature="0"
         id="path3913-6"
         d="m 474.54398,379.31118 c 0.18824,-1.79778 1.12412,-3.70718 2.335,-5.061"
         style="fill:none;stroke:#000000;stroke-width:1;stroke-linecap:round;stroke-linejoin:round;stroke-miterlimit:4;stroke-dasharray:none;stroke-opacity:1" />
      <path
         inkscape:connector-curvature="0"
         id="path3915-3"
         d="m 419.86498,392.47318 c 6.53531,7.77526 17.98151,6.436 27.1453,6.67013 6.92538,-0.24838 14.49681,-0.84131 19.9067,-5.69813"
         style="fill:none;stroke:#000000;stroke-width:1;stroke-linecap:round;stroke-linejoin:round;stroke-miterlimit:4;stroke-dasharray:none;stroke-opacity:1" />
      <path
         inkscape:connector-curvature="0"
         id="path3917-3"
         d="m 442.53098,398.27718 c -3.55641,2.59513 -4.58592,-4.54504 -0.57,-3.154 1.22987,0.49122 1.49442,2.25799 0.57,3.154 z"
         style="fill:none;stroke:#000000;stroke-width:1;stroke-linecap:round;stroke-linejoin:round;stroke-miterlimit:4;stroke-dasharray:none;stroke-opacity:1" />
      <path
         inkscape:connector-curvature="0"
         id="path3919-5"
         d="m 443.50198,427.12718 c -3.34276,1.13181 -6.08243,-4.24427 -1.029,-2.439 2.19222,-0.61698 2.91986,1.28107 1.029,2.439 z"
         style="fill:none;stroke:#000000;stroke-width:1;stroke-linecap:round;stroke-linejoin:round;stroke-miterlimit:4;stroke-dasharray:none;stroke-opacity:1" />
      <path
         inkscape:connector-curvature="0"
         id="path3921-8"
         d="m 436.43498,431.56518 c 5.58055,1.83987 11.65315,1.57345 17.262,0.821 5.62245,0.8415 11.83738,-3.25563 17.148,-5.016"
         style="fill:none;stroke:#000000;stroke-width:1;stroke-linecap:round;stroke-linejoin:round;stroke-miterlimit:4;stroke-dasharray:none;stroke-opacity:1" />
      <path
         inkscape:connector-curvature="0"
         id="path3923-9"
         d="m 430.64098,411.44018 c -4.72553,6.6623 -14.74016,-2.8301 -9.3825,-8.39359 3.3677,-3.92525 9.68136,-0.78486 10.2005,3.85759"
         style="fill:none;stroke:#000000;stroke-width:1;stroke-linecap:round;stroke-linejoin:round;stroke-miterlimit:4;stroke-dasharray:none;stroke-opacity:1" />
      <path
         inkscape:connector-curvature="0"
         id="path3925-4"
         d="m 489.57698,417.68718 c -3.14362,-9.23754 -1.70072,-19.52733 -0.523,-29.05 0.46633,-1.99555 0.71563,-4.21911 2.008,-5.883"
         style="fill:none;stroke:#000000;stroke-width:1;stroke-linecap:round;stroke-linejoin:round;stroke-miterlimit:4;stroke-dasharray:none;stroke-opacity:1" />
      <path
         inkscape:connector-curvature="0"
         id="path3929-4"
         d="m 489.59498,386.17318 c 2.19816,8.96467 1.5558,18.74849 -0.853,27.617 l -0.224,0.464 -0.042,0.067"
         style="fill:none;stroke:#000000;stroke-width:1;stroke-linecap:round;stroke-linejoin:round;stroke-miterlimit:4;stroke-dasharray:none;stroke-opacity:1" />
      <path
         inkscape:connector-curvature="0"
         id="path3939-2"
         d="m 496.32598,426.02318 c -0.97285,3.37545 -2.95611,6.33336 -3.803,9.744"
         style="fill:none;stroke:#000000;stroke-width:1;stroke-linecap:round;stroke-linejoin:round;stroke-miterlimit:4;stroke-dasharray:none;stroke-opacity:1" />
      <path
         inkscape:connector-curvature="0"
         id="path4299-4"
         d="m 404.38998,426.54518 c 6.25188,1.60499 12.09818,4.38899 17.059,8.57"
         style="fill:none;stroke:#000000;stroke-width:1;stroke-linecap:round;stroke-linejoin:round;stroke-miterlimit:4;stroke-dasharray:none;stroke-opacity:1" />
      <path
         inkscape:connector-curvature="0"
         id="path4301-3"
         d="m 420.44698,437.37118 c 4.79634,-0.83732 9.66897,-1.12309 14.542,-1.114"
         style="fill:none;stroke:#000000;stroke-width:1;stroke-linecap:round;stroke-linejoin:round;stroke-miterlimit:4;stroke-dasharray:none;stroke-opacity:1" />
      <path
         inkscape:connector-curvature="0"
         id="path4313-9"
         d="m 436.40998,431.82618 c -10.04467,-3.42968 -18.81683,-9.70841 -28.807,-13.197 -5.15804,-4.38166 -3.90603,-12.27724 -4.392,-18.376 0.6326,-7.39495 0.0615,-16.39607 5.617,-22.092 3.35141,-2.23257 7.63568,-1.86581 11.155,-3.752"
         style="fill:none;stroke:#000000;stroke-width:1;stroke-linecap:round;stroke-linejoin:round;stroke-miterlimit:4;stroke-dasharray:none;stroke-opacity:1" />
      <path
         inkscape:connector-curvature="0"
         id="path4321-5"
         d="m 478.52298,374.75218 c 4.68269,3.32394 13.72451,1.54852 14.715,8.87 1.74811,11.71017 1.60203,24.15709 -2.13,35.467 -2.89318,5.37107 -10.46736,3.22795 -15.09108,6.17896 -1.92125,0.63508 -3.75498,1.48703 -5.62592,2.25104"
         style="fill:none;stroke:#000000;stroke-width:1;stroke-linecap:round;stroke-linejoin:round;stroke-miterlimit:4;stroke-dasharray:none;stroke-opacity:1" />
      <ellipse
         ry="3.3105128"
         rx="3.8947208"
         cy="408.84213"
         cx="458.33237"
         id="path7141-1"
         style="fill:none;fill-opacity:1;stroke:#000000;stroke-width:1;stroke-miterlimit:4;stroke-dasharray:none;stroke-dashoffset:0;stroke-opacity:1" />
      <circle
         r="2.9210405"
         cy="408.45261"
         cx="425.81143"
         id="path7143-7"
         style="fill:none;fill-opacity:1;stroke:#000000;stroke-width:1;stroke-miterlimit:4;stroke-dasharray:none;stroke-dashoffset:0;stroke-opacity:1" />
    </g>
  </g>
</svg>
