<?xml version="1.0" encoding="UTF-8" standalone="no"?>
<!-- Created with Inkscape (http://www.inkscape.org/) -->

<svg
   xmlns:dc="http://purl.org/dc/elements/1.1/"
   xmlns:cc="http://creativecommons.org/ns#"
   xmlns:rdf="http://www.w3.org/1999/02/22-rdf-syntax-ns#"
   xmlns:svg="http://www.w3.org/2000/svg"
   xmlns="http://www.w3.org/2000/svg"
   xmlns:sodipodi="http://sodipodi.sourceforge.net/DTD/sodipodi-0.dtd"
   xmlns:inkscape="http://www.inkscape.org/namespaces/inkscape"
   width="74.641525mm"
   height="55.058807mm"
   viewBox="0 0 264.47785 195.09026"
   id="svg6204"
   version="1.1"
   inkscape:version="0.91 r13725"
   sodipodi:docname="naoMM.svg">
  <defs
     id="defs6206" />
  <sodipodi:namedview
     id="base"
     pagecolor="#ffffff"
     bordercolor="#666666"
     borderopacity="1.0"
     inkscape:pageopacity="0.0"
     inkscape:pageshadow="2"
     inkscape:zoom="2.5675781"
     inkscape:cx="112.49488"
     inkscape:cy="79.069254"
     inkscape:document-units="px"
     inkscape:current-layer="layer1"
     showgrid="false"
     fit-margin-top="0"
     fit-margin-left="0"
     fit-margin-right="0"
     fit-margin-bottom="0"
     inkscape:window-width="1855"
     inkscape:window-height="1056"
     inkscape:window-x="1985"
     inkscape:window-y="24"
     inkscape:window-maximized="1" />
  <metadata
     id="metadata6209">
    <rdf:RDF>
      <cc:Work
         rdf:about="">
        <dc:format>image/svg+xml</dc:format>
        <dc:type
           rdf:resource="http://purl.org/dc/dcmitype/StillImage" />
        <dc:title></dc:title>
      </cc:Work>
    </rdf:RDF>
  </metadata>
  <g
     inkscape:label="Layer 1"
     inkscape:groupmode="layer"
     id="layer1"
     transform="translate(-131.6425,-405.69615)">
    <g
       id="g7145">
      <path
         inkscape:connector-curvature="0"
         id="path3843"
         d="m 220.61798,586.75092 c 4.43081,0.44435 8.90486,0.70154 13.255,1.707"
         style="fill:none;stroke:#000000;stroke-width:1;stroke-linecap:round;stroke-linejoin:round;stroke-miterlimit:4;stroke-dasharray:none;stroke-opacity:1" />
      <path
         inkscape:connector-curvature="0"
         id="path3847"
         d="m 235.60598,586.36392 c 5.37755,-4.12628 11.89513,-6.11185 18.459,-7.093"
         style="fill:none;stroke:#000000;stroke-width:1;stroke-linecap:round;stroke-linejoin:round;stroke-miterlimit:4;stroke-dasharray:none;stroke-opacity:1" />
      <path
         inkscape:connector-curvature="0"
         id="path3861"
         d="m 219.65898,584.52092 c -7.57079,1.41678 -15.83307,0.67787 -23.546,-0.3 l -0.383,-0.214 -0.028,-0.016"
         style="fill:none;stroke:#000000;stroke-width:1;stroke-linecap:round;stroke-linejoin:round;stroke-miterlimit:4;stroke-dasharray:none;stroke-opacity:1" />
      <path
         inkscape:connector-curvature="0"
         id="path3863"
         d="m 198.41398,583.36892 c -6.68455,0.0506 -0.82852,1.71704 2.27387,1.55301 6.56095,0.16522 13.55275,1.12179 19.87913,-0.38201 -0.99894,-0.52056 -2.19243,-0.48712 -3.278,-0.68"
         style="fill:none;stroke:#000000;stroke-width:1;stroke-linecap:round;stroke-linejoin:round;stroke-miterlimit:4;stroke-dasharray:none;stroke-opacity:1" />
      <path
         inkscape:connector-curvature="0"
         id="path3865"
         d="m 203.31198,589.06092 c -2.66616,-0.39457 -7.52373,-0.86456 -8.555,-3.255"
         style="fill:none;stroke:#000000;stroke-width:1;stroke-linecap:round;stroke-linejoin:round;stroke-miterlimit:4;stroke-dasharray:none;stroke-opacity:1" />
      <path
         inkscape:connector-curvature="0"
         id="path3867"
         d="m 220.51598,586.76792 c -4.00277,1.13791 -9.25417,2.55817 -13.866,2.435"
         style="fill:none;stroke:#000000;stroke-width:1;stroke-linecap:round;stroke-linejoin:round;stroke-miterlimit:4;stroke-dasharray:none;stroke-opacity:1" />
      <path
         inkscape:connector-curvature="0"
         id="path3881"
         d="m 235.55598,586.31892 c -2.08681,4.31496 -5.89691,5.73005 -10.481,5.841 -11.05445,1.90746 -22.19368,-1.35949 -33.345,-0.246 -3.96406,-0.74127 -7.81172,-1.83175 -11.632,-3.115"
         style="fill:none;stroke:#000000;stroke-width:1;stroke-linecap:round;stroke-linejoin:round;stroke-miterlimit:4;stroke-dasharray:none;stroke-opacity:1" />
      <path
         inkscape:connector-curvature="0"
         id="path3883"
         d="m 180.09798,588.79892 c 0.18053,-2.83839 -0.17741,-7.12945 2.632,-2.314"
         style="fill:none;stroke:#000000;stroke-width:1;stroke-linecap:round;stroke-linejoin:round;stroke-miterlimit:4;stroke-dasharray:none;stroke-opacity:1" />
      <path
         inkscape:connector-curvature="0"
         id="path3897"
         d="m 177.45998,530.36392 c 0.69392,-5.35099 3.98007,-9.9331 9.35231,-11.38578 10.90281,-5.50883 24.04345,-9.0585 35.74893,-3.77777 5.34017,2.25884 12.15799,4.2591 15.73376,9.02655"
         style="fill:none;stroke:#000000;stroke-width:1;stroke-linecap:round;stroke-linejoin:round;stroke-miterlimit:4;stroke-dasharray:none;stroke-opacity:1" />
      <path
         inkscape:connector-curvature="0"
         id="path3899"
         d="m 249.53898,535.44392 c 1.96386,8.7053 1.33817,18.07099 -0.517,26.75"
         style="fill:none;stroke:#000000;stroke-width:1;stroke-linecap:round;stroke-linejoin:round;stroke-miterlimit:4;stroke-dasharray:none;stroke-opacity:1" />
      <path
         inkscape:connector-curvature="0"
         id="path3901"
         d="m 211.70298,560.49292 c 3.25455,7.30645 16.83728,2.61492 13.31,-5.159 -2.66734,-5.78949 -12.31363,-4.53242 -13.67,1.594"
         style="fill:none;stroke:#000000;stroke-width:1;stroke-linecap:round;stroke-linejoin:round;stroke-miterlimit:4;stroke-dasharray:none;stroke-opacity:1" />
      <path
         inkscape:connector-curvature="0"
         id="path3905"
         d="m 250.06998,552.96792 c 0.2556,-4.30579 0.30695,-8.6324 -0.017,-12.936"
         style="fill:none;stroke:#000000;stroke-width:1;stroke-linecap:round;stroke-linejoin:round;stroke-miterlimit:4;stroke-dasharray:none;stroke-opacity:1" />
      <path
         inkscape:connector-curvature="0"
         id="path3907"
         d="m 199.66798,544.89892 c -1.97352,1.68628 0.86582,4.29825 2.644,2.84"
         style="fill:none;stroke:#000000;stroke-width:1;stroke-linecap:round;stroke-linejoin:round;stroke-miterlimit:4;stroke-dasharray:none;stroke-opacity:1" />
      <path
         inkscape:connector-curvature="0"
         id="path3909"
         d="m 177.45998,530.35992 c -0.78453,3.95725 0.0945,8.16173 2.177,11.588"
         style="fill:none;stroke:#000000;stroke-width:1;stroke-linecap:round;stroke-linejoin:round;stroke-miterlimit:4;stroke-dasharray:none;stroke-opacity:1" />
      <path
         inkscape:connector-curvature="0"
         id="path3911"
         d="m 226.68898,542.91992 c 2.68643,-3.60813 5.4037,-7.33958 6.708,-11.708"
         style="fill:none;stroke:#000000;stroke-width:1;stroke-linecap:round;stroke-linejoin:round;stroke-miterlimit:4;stroke-dasharray:none;stroke-opacity:1" />
      <path
         inkscape:connector-curvature="0"
         id="path3913"
         d="m 234.31598,528.78592 c 0.18824,-1.79778 1.12412,-3.70718 2.335,-5.061"
         style="fill:none;stroke:#000000;stroke-width:1;stroke-linecap:round;stroke-linejoin:round;stroke-miterlimit:4;stroke-dasharray:none;stroke-opacity:1" />
      <path
         inkscape:connector-curvature="0"
         id="path3915"
         d="m 179.63698,541.94792 c 6.53531,7.77526 17.98151,6.436 27.1453,6.67013 6.92538,-0.24838 14.49681,-0.84131 19.9067,-5.69813"
         style="fill:none;stroke:#000000;stroke-width:1;stroke-linecap:round;stroke-linejoin:round;stroke-miterlimit:4;stroke-dasharray:none;stroke-opacity:1" />
      <path
         inkscape:connector-curvature="0"
         id="path3917"
         d="m 202.30298,547.75192 c -3.55641,2.59513 -4.58592,-4.54504 -0.57,-3.154 1.22987,0.49122 1.49442,2.25799 0.57,3.154 z"
         style="fill:none;stroke:#000000;stroke-width:1;stroke-linecap:round;stroke-linejoin:round;stroke-miterlimit:4;stroke-dasharray:none;stroke-opacity:1" />
      <path
         inkscape:connector-curvature="0"
         id="path3919"
         d="m 203.27398,576.60192 c -3.34276,1.13181 -6.08243,-4.24427 -1.029,-2.439 2.19222,-0.61698 2.91986,1.28107 1.029,2.439 z"
         style="fill:none;stroke:#000000;stroke-width:1;stroke-linecap:round;stroke-linejoin:round;stroke-miterlimit:4;stroke-dasharray:none;stroke-opacity:1" />
      <path
         inkscape:connector-curvature="0"
         id="path3921"
         d="m 196.20698,581.03992 c 5.58055,1.83987 11.65315,1.57345 17.262,0.821 5.62245,0.8415 11.83738,-3.25563 17.148,-5.016"
         style="fill:none;stroke:#000000;stroke-width:1;stroke-linecap:round;stroke-linejoin:round;stroke-miterlimit:4;stroke-dasharray:none;stroke-opacity:1" />
      <path
         inkscape:connector-curvature="0"
         id="path3923"
         d="m 190.41298,560.91492 c -4.72553,6.6623 -14.74016,-2.8301 -9.3825,-8.39359 3.3677,-3.92525 9.68136,-0.78486 10.2005,3.85759"
         style="fill:none;stroke:#000000;stroke-width:1;stroke-linecap:round;stroke-linejoin:round;stroke-miterlimit:4;stroke-dasharray:none;stroke-opacity:1" />
      <path
         inkscape:connector-curvature="0"
         id="path3925"
         d="m 249.34898,567.16192 c -3.14362,-9.23754 -1.70072,-19.52733 -0.523,-29.05 0.46633,-1.99555 0.71563,-4.21911 2.008,-5.883"
         style="fill:none;stroke:#000000;stroke-width:1;stroke-linecap:round;stroke-linejoin:round;stroke-miterlimit:4;stroke-dasharray:none;stroke-opacity:1" />
      <path
         inkscape:connector-curvature="0"
         id="path3929"
         d="m 249.36698,535.64792 c 2.19816,8.96467 1.5558,18.74849 -0.853,27.617 l -0.224,0.464 -0.042,0.067"
         style="fill:none;stroke:#000000;stroke-width:1;stroke-linecap:round;stroke-linejoin:round;stroke-miterlimit:4;stroke-dasharray:none;stroke-opacity:1" />
      <path
         inkscape:connector-curvature="0"
         id="path3933"
         d="m 256.42198,574.55992 c 1.15412,-4.30287 6.83606,-2.5748 10.19304,-2.7002 10.49077,0.87933 20.63909,7.02917 25.57996,16.3812 0.28719,2.75592 -0.80621,5.31734 -2.102,7.679"
         style="fill:none;stroke:#000000;stroke-width:1;stroke-linecap:round;stroke-linejoin:round;stroke-miterlimit:4;stroke-dasharray:none;stroke-opacity:1" />
      <path
         inkscape:connector-curvature="0"
         id="path3939"
         d="m 256.09798,575.49792 c -0.97285,3.37545 -2.95611,6.33336 -3.803,9.744"
         style="fill:none;stroke:#000000;stroke-width:1;stroke-linecap:round;stroke-linejoin:round;stroke-miterlimit:4;stroke-dasharray:none;stroke-opacity:1" />
      <path
         inkscape:connector-curvature="0"
         id="path3941"
         d="m 265.93198,600.26092 c 8.7223,0.5517 13.5115,-7.95912 20.75411,-10.87006 3.58191,-1.58715 6.40217,2.22615 3.78317,5.14415 -0.96967,1.84998 -1.92097,3.71309 -3.13828,5.41691"
         style="fill:none;stroke:#000000;stroke-width:1;stroke-linecap:round;stroke-linejoin:round;stroke-miterlimit:4;stroke-dasharray:none;stroke-opacity:1" />
      <path
         inkscape:connector-curvature="0"
         id="path3943"
         d="m 252.00498,590.25892 c 0.64348,3.21326 2.92774,6.14241 5.776,7.756"
         style="fill:none;stroke:#000000;stroke-width:1;stroke-linecap:round;stroke-linejoin:round;stroke-miterlimit:4;stroke-dasharray:none;stroke-opacity:1" />
      <path
         inkscape:connector-curvature="0"
         id="path4281"
         d="m 132.60898,590.52392 c -1.62563,-6.23879 1.02661,-13.30313 7.34375,-15.62733 6.72295,-3.30619 15.3858,-5.47706 22.50125,-2.57167 1.32986,0.93182 1.90776,2.60668 2.661,3.976"
         style="fill:none;stroke:#000000;stroke-width:1;stroke-linecap:round;stroke-linejoin:round;stroke-miterlimit:4;stroke-dasharray:none;stroke-opacity:1" />
      <path
         inkscape:connector-curvature="0"
         id="path4299"
         d="m 164.16198,576.01992 c 6.25188,1.60499 12.09818,4.38899 17.059,8.57"
         style="fill:none;stroke:#000000;stroke-width:1;stroke-linecap:round;stroke-linejoin:round;stroke-miterlimit:4;stroke-dasharray:none;stroke-opacity:1" />
      <path
         inkscape:connector-curvature="0"
         id="path4301"
         d="m 180.21898,586.84592 c 4.79634,-0.83732 9.66897,-1.12309 14.542,-1.114"
         style="fill:none;stroke:#000000;stroke-width:1;stroke-linecap:round;stroke-linejoin:round;stroke-miterlimit:4;stroke-dasharray:none;stroke-opacity:1" />
      <path
         inkscape:connector-curvature="0"
         id="path4313"
         d="m 196.18198,581.30092 c -10.04467,-3.42968 -18.81683,-9.70841 -28.807,-13.197 -5.15804,-4.38166 -3.90603,-12.27724 -4.392,-18.376 0.6326,-7.39495 0.0615,-16.39607 5.617,-22.092 3.35141,-2.23257 7.63568,-1.86581 11.155,-3.752"
         style="fill:none;stroke:#000000;stroke-width:1;stroke-linecap:round;stroke-linejoin:round;stroke-miterlimit:4;stroke-dasharray:none;stroke-opacity:1" />
      <path
         inkscape:connector-curvature="0"
         id="path4321"
         d="m 238.29498,524.22692 c 4.68269,3.32394 13.72451,1.54852 14.715,8.87 1.74811,11.71017 1.60203,24.15709 -2.13,35.467 -2.89318,5.37107 -10.46736,3.22795 -15.09108,6.17896 -1.92125,0.63508 -3.75498,1.48703 -5.62592,2.25104"
         style="fill:none;stroke:#000000;stroke-width:1;stroke-linecap:round;stroke-linejoin:round;stroke-miterlimit:4;stroke-dasharray:none;stroke-opacity:1" />
      <ellipse
         ry="3.7880721"
         rx="4.2931485"
         cy="512.19391"
         cx="234.86333"
         id="path5002"
         style="fill:none;fill-opacity:1;stroke:#000000;stroke-width:1;stroke-miterlimit:4;stroke-dasharray:none;stroke-dashoffset:0;stroke-opacity:1" />
      <ellipse
         ry="8.3337584"
         rx="10.354064"
         cy="503.10254"
         cx="256.07654"
         id="path5004"
         style="fill:none;fill-opacity:1;stroke:#000000;stroke-width:1;stroke-miterlimit:4;stroke-dasharray:none;stroke-dashoffset:0;stroke-opacity:1" />
      <path
         sodipodi:nodetypes="ccccccccccc"
         inkscape:connector-curvature="0"
         id="path5006"
         d="m 259.80731,456.34812 c -12.82385,33.6233 7.71094,27.82068 20.27048,31.44389 8.61689,11.52697 18.73483,16.3459 32.24849,5.98931 13.5243,11.58339 25.7881,10.87616 36.85543,-1.49733 28.60578,5.33192 29.59076,-7.75864 30.40571,-20.9626 22.33784,-10.95605 17.49663,-20.21332 8.29245,-29.19788 6.54908,-15.84843 2.28073,-26.28784 -23.03461,-26.20324 -9.35724,-10.64748 -20.74478,-13.0464 -35.01265,-3.74332 -11.2491,-7.07742 -23.16145,-9.30445 -36.85541,1.49733 -14.55639,-1.27091 -27.60578,-0.70505 -27.64158,15.72192 -8.463,6.04986 -22.75616,9.51578 -5.52831,26.95192 z"
         style="fill:none;fill-rule:evenodd;stroke:#000000;stroke-width:1.04400003;stroke-linecap:butt;stroke-linejoin:miter;stroke-miterlimit:4;stroke-dasharray:none;stroke-opacity:1" />
      <g
         id="g5726"
         transform="matrix(0.69271262,0,0,0.6360002,186.22946,395.56569)">
        <path
           style="fill:none;fill-rule:evenodd;stroke:#000000;stroke-width:1px;stroke-linecap:butt;stroke-linejoin:miter;stroke-opacity:1"
           d="m 199.10285,113.5263 c 3.2155,3.93645 7.34469,4.21812 12.11691,1.92769 -1.27685,0.55904 -2.66655,1.00523 -1.92769,3.57999"
           id="path5622"
           inkscape:connector-curvature="0"
           sodipodi:nodetypes="ccc" />
        <path
           style="fill:none;fill-rule:evenodd;stroke:#000000;stroke-width:1px;stroke-linecap:butt;stroke-linejoin:miter;stroke-opacity:1"
           d="m 204.33515,117.10629 c -10.61968,11.28163 -32.64401,2.8293 -34.9738,-4.68153"
           id="path5624"
           inkscape:connector-curvature="0"
           sodipodi:nodetypes="cc" />
        <path
           style="fill:none;fill-rule:evenodd;stroke:#000000;stroke-width:1px;stroke-linecap:butt;stroke-linejoin:miter;stroke-opacity:1"
           d="m 166.33212,112.70014 c 1.67607,-0.43521 3.90379,-0.31876 4.13076,-2.20307"
           id="path5626"
           inkscape:connector-curvature="0"
           sodipodi:nodetypes="cc" />
        <path
           style="fill:none;fill-rule:evenodd;stroke:#000000;stroke-width:1px;stroke-linecap:butt;stroke-linejoin:miter;stroke-opacity:1"
           d="m 189.18901,113.80168 c -6.2899,4.0157 -8.59507,-0.01 -8.81229,-2.47846 -0.59843,-3.62046 4.15896,-4.57123 7.43537,-1.6523"
           id="path5628"
           inkscape:connector-curvature="0"
           sodipodi:nodetypes="ccc" />
        <path
           style="fill:none;fill-rule:evenodd;stroke:#000000;stroke-width:1px;stroke-linecap:butt;stroke-linejoin:miter;stroke-opacity:1"
           d="m 185.33363,104.714 c 1.47213,-0.10543 2.89446,-0.0117 3.85538,1.92769"
           id="path5630"
           inkscape:connector-curvature="0"
           sodipodi:nodetypes="cc" />
        <path
           style="fill:none;fill-rule:evenodd;stroke:#000000;stroke-width:1px;stroke-linecap:butt;stroke-linejoin:miter;stroke-opacity:1"
           d="m 199.10285,109.39553 c 8.1827,-2.29478 12.08999,-1.86884 14.59537,-0.55077"
           id="path5632"
           inkscape:connector-curvature="0"
           sodipodi:nodetypes="cc" />
        <path
           style="fill:none;fill-rule:evenodd;stroke:#000000;stroke-width:1px;stroke-linecap:butt;stroke-linejoin:miter;stroke-opacity:1"
           d="m 166.33212,102.51092 c 3.3654,-0.45867 4.72241,0.58896 6.05845,1.65231"
           id="path5634"
           inkscape:connector-curvature="0"
           sodipodi:nodetypes="cc" />
        <path
           style="fill:none;fill-rule:evenodd;stroke:#000000;stroke-width:1px;stroke-linecap:butt;stroke-linejoin:miter;stroke-opacity:1"
           d="m 180.92749,124.81705 c 0.5869,2.41284 2.09639,4.0876 6.33383,3.58"
           id="path5636"
           inkscape:connector-curvature="0"
           sodipodi:nodetypes="cc" />
        <path
           style="fill:none;fill-rule:evenodd;stroke:#000000;stroke-width:1px;stroke-linecap:butt;stroke-linejoin:miter;stroke-opacity:1"
           d="m 174.08514,88.645076 c 2.82517,-3.215875 5.6277,-6.839245 8.9574,-0.97363"
           id="path5638"
           inkscape:connector-curvature="0"
           sodipodi:nodetypes="cc" />
        <path
           style="fill:none;fill-rule:evenodd;stroke:#000000;stroke-width:1px;stroke-linecap:butt;stroke-linejoin:miter;stroke-opacity:1"
           d="m 201.15207,88.45035 c 2.15715,0.569014 5.07587,0.376454 4.28397,3.894522"
           id="path5640"
           inkscape:connector-curvature="0"
           sodipodi:nodetypes="cc" />
        <path
           style="fill:none;fill-rule:evenodd;stroke:#000000;stroke-width:1px;stroke-linecap:butt;stroke-linejoin:miter;stroke-opacity:1"
           d="m 187.32651,64.304313 c -3.47984,6.406351 4.45689,14.95331 8.56795,22.782954"
           id="path5642"
           inkscape:connector-curvature="0"
           sodipodi:nodetypes="cc" />
        <path
           style="fill:none;fill-rule:evenodd;stroke:#000000;stroke-width:1px;stroke-linecap:butt;stroke-linejoin:miter;stroke-opacity:1"
           d="m 194.53138,86.308363 c -0.224,-5.859602 -2.95384,-12.218818 -1.16836,-19.083159"
           id="path5644"
           inkscape:connector-curvature="0"
           sodipodi:nodetypes="cc" />
        <path
           style="fill:none;fill-rule:evenodd;stroke:#000000;stroke-width:1px;stroke-linecap:butt;stroke-linejoin:miter;stroke-opacity:1"
           d="m 206.99385,76.377331 c -0.18283,5.830475 11.29234,9.282751 16.94117,9.54158"
           id="path5648"
           inkscape:connector-curvature="0"
           sodipodi:nodetypes="cc" />
        <path
           style="fill:none;fill-rule:evenodd;stroke:#000000;stroke-width:1px;stroke-linecap:butt;stroke-linejoin:miter;stroke-opacity:1"
           d="m 228.80318,82.803293 c -4.36839,5.778035 -10.5227,10.581936 -9.54158,19.277887"
           id="path5650"
           inkscape:connector-curvature="0"
           sodipodi:nodetypes="cc" />
        <path
           style="fill:none;fill-rule:evenodd;stroke:#000000;stroke-width:1px;stroke-linecap:butt;stroke-linejoin:miter;stroke-opacity:1"
           d="m 222.57194,108.70187 c -1.03129,-5.03954 -4.88935,-10.245371 2.33671,-14.799189"
           id="path5652"
           inkscape:connector-curvature="0"
           sodipodi:nodetypes="cc" />
        <path
           style="fill:none;fill-rule:evenodd;stroke:#000000;stroke-width:1px;stroke-linecap:butt;stroke-linejoin:miter;stroke-opacity:1"
           d="m 216.73016,115.12783 5.06288,-4.08925"
           id="path5654"
           inkscape:connector-curvature="0" />
        <path
           style="fill:none;fill-rule:evenodd;stroke:#000000;stroke-width:1px;stroke-linecap:butt;stroke-linejoin:miter;stroke-opacity:1"
           d="m 163.76466,104.22316 -0.19473,-6.815409"
           id="path5656"
           inkscape:connector-curvature="0" />
        <path
           style="fill:none;fill-rule:evenodd;stroke:#000000;stroke-width:1px;stroke-linecap:butt;stroke-linejoin:miter;stroke-opacity:1"
           d="m 163.56993,95.655216 c -0.87196,-6.373307 0.18972,-13.39116 0.7789,-20.251515"
           id="path5658"
           inkscape:connector-curvature="0"
           sodipodi:nodetypes="cc" />
        <path
           style="fill:none;fill-rule:evenodd;stroke:#000000;stroke-width:1px;stroke-linecap:butt;stroke-linejoin:miter;stroke-opacity:1"
           d="m 183.62672,67.809383 c -13.42259,6.637972 -27.79866,10.224783 -43.81338,8.567948"
           id="path5660"
           inkscape:connector-curvature="0"
           sodipodi:nodetypes="cc" />
        <path
           style="fill:none;fill-rule:evenodd;stroke:#000000;stroke-width:1px;stroke-linecap:butt;stroke-linejoin:miter;stroke-opacity:1"
           d="m 145.4604,73.845892 c 5.92205,-9.063932 17.31082,-16.139967 28.81947,-23.172407 -8.26979,3.223757 -12.55868,3.691505 -26.87221,11.099388"
           id="path5662"
           inkscape:connector-curvature="0"
           sodipodi:nodetypes="ccc" />
        <path
           style="fill:none;fill-rule:evenodd;stroke:#000000;stroke-width:1px;stroke-linecap:butt;stroke-linejoin:miter;stroke-opacity:1"
           d="m 185.96343,49.115677 c -1.79109,-4.591936 -23.06292,-7.041298 -35.24542,5.062878"
           id="path5664"
           inkscape:connector-curvature="0"
           sodipodi:nodetypes="cc" />
        <path
           style="fill:none;fill-rule:evenodd;stroke:#000000;stroke-width:1px;stroke-linecap:butt;stroke-linejoin:miter;stroke-opacity:1"
           d="m 163.76466,43.468619 c 22.97833,-3.509924 45.88675,-6.495596 65.81742,12.851923"
           id="path5666"
           inkscape:connector-curvature="0"
           sodipodi:nodetypes="cc" />
        <path
           style="fill:none;fill-rule:evenodd;stroke:#000000;stroke-width:1px;stroke-linecap:butt;stroke-linejoin:miter;stroke-opacity:1"
           d="m 224.90865,41.716084 c 4.84035,7.510855 9.65219,15.035967 12.46247,23.561859 l 3.31035,-9.736305 -0.19473,14.215006"
           id="path5668"
           inkscape:connector-curvature="0"
           sodipodi:nodetypes="cccc" />
        <path
           style="fill:none;fill-rule:evenodd;stroke:#000000;stroke-width:1px;stroke-linecap:butt;stroke-linejoin:miter;stroke-opacity:1"
           d="m 240.68147,72.288083 c 3.21381,-2.401622 4.61023,-4.803244 10.12576,-7.204866 3.75772,1.658662 5.02013,4.564982 6.81541,7.204866 -6.66251,-3.428115 -12.96141,-5.644194 -16.55172,1.168357 12.08006,-3.966471 13.03669,3.190486 12.85192,11.48884 l -6.03651,-9.346853"
           id="path5670"
           inkscape:connector-curvature="0"
           sodipodi:nodetypes="cccccc" />
        <path
           style="fill:none;fill-rule:evenodd;stroke:#000000;stroke-width:1px;stroke-linecap:butt;stroke-linejoin:miter;stroke-opacity:1"
           d="m 241.6551,76.96151 2.92089,19.083158 -4.4787,-17.914802"
           id="path5672"
           inkscape:connector-curvature="0" />
        <path
           style="fill:none;fill-rule:evenodd;stroke:#000000;stroke-width:1px;stroke-linecap:butt;stroke-linejoin:miter;stroke-opacity:1"
           d="m 230.36098,107.92296 c 10.91797,-7.00584 10.90455,-13.10073 9.54158,-19.083158"
           id="path5674"
           inkscape:connector-curvature="0"
           sodipodi:nodetypes="cc" />
        <path
           style="fill:none;fill-rule:evenodd;stroke:#000000;stroke-width:1px;stroke-linecap:butt;stroke-linejoin:miter;stroke-opacity:1"
           d="m 239.12366,113.76474 c -1.29589,-1.88349 -2.74093,-3.69241 -5.06288,-5.06287"
           id="path5676"
           inkscape:connector-curvature="0"
           sodipodi:nodetypes="cc" />
        <path
           style="fill:none;fill-rule:evenodd;stroke:#000000;stroke-width:1px;stroke-linecap:butt;stroke-linejoin:miter;stroke-opacity:1"
           d="m 228.9979,110.25967 c 4.85373,-0.90151 10.12489,-3.8902 14.02028,0"
           id="path5678"
           inkscape:connector-curvature="0"
           sodipodi:nodetypes="cc" />
        <path
           style="fill:none;fill-rule:evenodd;stroke:#000000;stroke-width:1px;stroke-linecap:butt;stroke-linejoin:miter;stroke-opacity:1"
           d="m 232.30825,112.40166 c 4.73769,4.27305 1.79201,8.1418 -0.77891,10.32048 -3.31375,2.83363 -10.96616,10.34273 -17.1359,2.9209 -6.59482,8.19392 -16.38856,11.26957 -30.76672,7.01014 -18.80339,-5.92544 -27.35164,-15.37211 -21.41987,-25.50912"
           id="path5680"
           inkscape:connector-curvature="0"
           sodipodi:nodetypes="ccccc" />
        <path
           style="fill:none;fill-rule:evenodd;stroke:#000000;stroke-width:1px;stroke-linecap:butt;stroke-linejoin:miter;stroke-opacity:1"
           d="m 157.14397,112.79111 c -9.14882,-5.84197 -9.22034,-12.20264 -0.19473,-19.083155"
           id="path5682"
           inkscape:connector-curvature="0"
           sodipodi:nodetypes="cc" />
        <path
           style="fill:none;fill-rule:evenodd;stroke:#000000;stroke-width:1px;stroke-linecap:butt;stroke-linejoin:miter;stroke-opacity:1"
           d="m 160.25959,96.239394 3.50507,7.983766"
           id="path5684"
           inkscape:connector-curvature="0" />
        <path
           style="fill:none;fill-rule:evenodd;stroke:#000000;stroke-width:1px;stroke-linecap:butt;stroke-linejoin:miter;stroke-opacity:1"
           d="m 153.44417,84.750554 6.23124,7.399592 c -2.60709,-0.141012 -5.11253,-0.790321 -7.20487,-3.50507"
           id="path5686"
           inkscape:connector-curvature="0"
           sodipodi:nodetypes="ccc" />
        <path
           style="fill:none;fill-rule:evenodd;stroke:#000000;stroke-width:1px;stroke-linecap:butt;stroke-linejoin:miter;stroke-opacity:1"
           d="m 163.56993,77.545688 c -8.79336,0.655999 -15.48036,4.020173 -20.64097,9.346853"
           id="path5690"
           inkscape:connector-curvature="0"
           sodipodi:nodetypes="cc" />
        <path
           style="fill:none;fill-rule:evenodd;stroke:#000000;stroke-width:1px;stroke-linecap:butt;stroke-linejoin:miter;stroke-opacity:1"
           d="m 217.89851,123.30632 c -2.06994,-5.25256 8.97512,-4.59413 13.63083,-6.81541"
           id="path5692"
           inkscape:connector-curvature="0"
           sodipodi:nodetypes="cc" />
        <path
           style="fill:none;fill-rule:evenodd;stroke:#000000;stroke-width:1px;stroke-linecap:butt;stroke-linejoin:miter;stroke-opacity:1"
           d="m 153.24945,99.549738 c 2.9858,-1.518524 5.9716,4.196042 8.9574,6.425962"
           id="path5694"
           inkscape:connector-curvature="0"
           sodipodi:nodetypes="cc" />
        <path
           style="fill:none;fill-rule:evenodd;stroke:#000000;stroke-width:1px;stroke-linecap:butt;stroke-linejoin:miter;stroke-opacity:1"
           d="m 218.09324,123.8905 c 5.5555,1.15128 8.1207,-1.43532 9.54158,-5.45233"
           id="path5696"
           inkscape:connector-curvature="0"
           sodipodi:nodetypes="cc" />
        <path
           style="fill:none;fill-rule:evenodd;stroke:#000000;stroke-width:1px;stroke-linecap:butt;stroke-linejoin:miter;stroke-opacity:1"
           d="m 158.50705,103.63899 c -0.81303,2.5485 -2.92892,5.74843 1.16836,5.84178"
           id="path5698"
           inkscape:connector-curvature="0"
           sodipodi:nodetypes="cc" />
        <path
           style="fill:none;fill-rule:evenodd;stroke:#000000;stroke-width:1px;stroke-linecap:butt;stroke-linejoin:miter;stroke-opacity:1"
           d="m 224.90865,123.1116 c 0.94821,-2.97543 -0.58613,-3.88208 -2.72616,-4.28398"
           id="path5700"
           inkscape:connector-curvature="0"
           sodipodi:nodetypes="cc" />
        <path
           style="fill:none;fill-rule:evenodd;stroke:#000000;stroke-width:1px;stroke-linecap:butt;stroke-linejoin:miter;stroke-opacity:1"
           d="m 166.10137,105.39152 1.16836,1.75254"
           id="path5702"
           inkscape:connector-curvature="0" />
        <path
           style="fill:none;fill-rule:evenodd;stroke:#000000;stroke-width:1px;stroke-linecap:butt;stroke-linejoin:miter;stroke-opacity:1"
           d="m 169.41171,105.9757 0.97363,1.55781"
           id="path5704"
           inkscape:connector-curvature="0" />
        <path
           style="fill:none;fill-rule:evenodd;stroke:#000000;stroke-width:1px;stroke-linecap:butt;stroke-linejoin:miter;stroke-opacity:1"
           d="m 201.93097,110.4544 1.36309,1.55781"
           id="path5706"
           inkscape:connector-curvature="0" />
        <path
           style="fill:none;fill-rule:evenodd;stroke:#000000;stroke-width:1px;stroke-linecap:butt;stroke-linejoin:miter;stroke-opacity:1"
           d="m 206.79913,110.06495 0.19472,1.55781"
           id="path5708"
           inkscape:connector-curvature="0" />
        <path
           style="fill:none;fill-rule:evenodd;stroke:#000000;stroke-width:1px;stroke-linecap:butt;stroke-linejoin:miter;stroke-opacity:1"
           d="m 209.33056,111.03858 0.77891,1.55781"
           id="path5712"
           inkscape:connector-curvature="0" />
        <path
           style="fill:none;fill-rule:evenodd;stroke:#000000;stroke-width:1px;stroke-linecap:butt;stroke-linejoin:miter;stroke-opacity:1"
           d="m 204.07296,112.59639 2.14199,0.58418"
           id="path5714"
           inkscape:connector-curvature="0" />
        <path
           style="fill:none;fill-rule:evenodd;stroke:#000000;stroke-width:1px;stroke-linecap:butt;stroke-linejoin:miter;stroke-opacity:1"
           d="m 193.75248,66.641026 c -0.5432,8.992882 10.93374,15.211885 16.55172,22.782955 -3.1269,-5.192696 -9.66604,-10.385393 -8.1785,-15.578089"
           id="path5716"
           inkscape:connector-curvature="0"
           sodipodi:nodetypes="ccc" />
        <ellipse
           style="fill:none;fill-opacity:1;stroke:#000000;stroke-width:1;stroke-miterlimit:4;stroke-dasharray:none;stroke-dashoffset:0;stroke-opacity:1"
           id="path5718"
           cx="179.44011"
           cy="102.66536"
           rx="2.2393503"
           ry="3.1156178" />
        <ellipse
           style="fill:none;fill-opacity:1;stroke:#000000;stroke-width:1;stroke-miterlimit:4;stroke-dasharray:none;stroke-dashoffset:0;stroke-opacity:1"
           id="path5720"
           cx="218.51349"
           cy="41.464073"
           rx="2.5314393"
           ry="3.602433"
           transform="matrix(0.95305378,0.30280108,-0.30280108,0.95305378,0,0)" />
        <path
           style="fill:none;fill-rule:evenodd;stroke:#000000;stroke-width:1px;stroke-linecap:butt;stroke-linejoin:miter;stroke-opacity:1"
           d="m 168.63281,128.56393 c -5.64097,11.23896 -3.03766,13.71838 -0.58418,16.35699 -0.2521,-4.96175 4.27712,-7.53284 7.98377,-10.51521 l 4.28397,3.31035 c 12.49245,-2.44324 7.84936,6.5372 8.95741,11.68356 l 24.73021,-8.9574 c 1.3547,-3.43758 1.80509,-6.59691 -3.50507,-7.98377 -29.74631,9.6051 -32.60857,0.64739 -41.86611,-3.89452 z"
           id="path5722"
           inkscape:connector-curvature="0"
           sodipodi:nodetypes="cccccccc" />
        <circle
           style="fill:none;fill-opacity:1;stroke:#000000;stroke-width:1;stroke-miterlimit:4;stroke-dasharray:none;stroke-dashoffset:0;stroke-opacity:1"
           id="path5724"
           cx="178.85593"
           cy="141.51321"
           r="2.4340763" />
      </g>
      <ellipse
         ry="3.3105128"
         rx="3.8947208"
         cy="558.31689"
         cx="218.10437"
         id="path7141"
         style="fill:none;fill-opacity:1;stroke:#000000;stroke-width:1;stroke-miterlimit:4;stroke-dasharray:none;stroke-dashoffset:0;stroke-opacity:1" />
      <circle
         r="2.9210405"
         cy="557.92737"
         cx="185.58345"
         id="path7143"
         style="fill:none;fill-opacity:1;stroke:#000000;stroke-width:1;stroke-miterlimit:4;stroke-dasharray:none;stroke-dashoffset:0;stroke-opacity:1" />
    </g>
  </g>
</svg>
